<svg width="70" height="74" viewBox="0 0 70 74" fill="none" xmlns="http://www.w3.org/2000/svg">
<path d="M57.8548 29.2429C41.8263 23.4296 21.5394 26.0609 11.2542 28.6325C9.89832 28.9715 8.79103 29.9302 8.60317 31.3152C8.45095 32.4374 8.37576 33.9587 8.49108 35.8957C8.66051 38.7415 11.4548 40.5491 14.2577 40.0286C33.746 36.4099 47.7941 37.9376 54.9373 39.8649C57.0837 40.444 59.4023 39.8178 59.9989 37.6762C60.2981 36.602 60.559 35.2838 60.7154 33.7117C60.9115 31.7413 59.7162 29.918 57.8548 29.2429Z" fill="white"/>
<path d="M14.5405 28.5032C24.2135 -9.13478 46.1054 -1.06608 55.8422 7.67302C56.76 10.3067 57.7816 15.191 54.5254 13.6587C49.9283 12.2221 52.6099 22.9565 54.5254 28.5032C51.4527 28.2638 39.1539 27.9286 14.5405 28.5032Z" fill="url(#paint0_linear_29_402)"/>
<ellipse cx="59.9117" cy="12.8211" rx="7.1829" ry="7.18283" fill="white"/>
<ellipse cx="34.6645" cy="59.4359" rx="5.26746" ry="5.2674" fill="url(#paint1_linear_29_402)"/>
<path d="M29.5552 41.5664C26.2844 39.3159 23.2326 40.7665 21.3558 42.4811C20.9822 42.8224 21.3969 43.3542 21.8778 43.1968C28.0573 41.1751 34.3817 44.8873 29.5552 41.5664Z" fill="#7D2D14"/>
<path d="M40.3891 41.5664C43.66 39.3159 46.7117 40.7665 48.5886 42.4811C48.9621 42.8224 48.5474 43.3542 48.0665 43.1968C41.887 41.1751 35.5626 44.8873 40.3891 41.5664Z" fill="#7D2D14"/>
<path d="M49.0505 47.9657C47.8135 46.4094 43.4818 43.5116 41.9876 47.2474C40.3118 51.4374 44.3819 45.6911 49.0505 47.9657Z" fill="#2F2F2F"/>
<path fill-rule="evenodd" clip-rule="evenodd" d="M21.2051 47.3573C22.4422 45.801 26.7739 42.9031 28.2681 46.6389C28.3297 46.793 28.3835 46.9336 28.4298 47.0616C28.6304 47.3707 28.7469 47.7395 28.7469 48.1354C28.7469 49.2263 27.8625 50.1106 26.7716 50.1106C25.6807 50.1106 24.7963 49.2263 24.7963 48.1354C24.7963 47.9075 24.8349 47.6887 24.9059 47.485C24.1705 47.4167 23.3576 47.4652 22.5191 47.763C22.8304 47.4775 23.4008 47.11 24.0651 46.8226C23.1726 46.7515 22.2025 46.8713 21.2051 47.3573Z" fill="#2F2F2F"/>
<path d="M69.7712 41.9623L61.8148 45.8354C59.962 59.4919 54.1854 59.802 57.7822 59.802C66.8502 59.5203 69.5532 47.7915 69.7712 41.9623Z" fill="#FFDDA7"/>
<path d="M0.290386 41.9623L8.24675 45.8354C10.0996 59.4919 15.8761 59.802 12.2794 59.802C3.21135 59.5203 0.508368 47.7915 0.290386 41.9623Z" fill="#FFDDA7"/>
<circle cx="8.27119" cy="59.0344" r="1.4084" fill="url(#paint2_linear_29_402)"/>
<circle cx="61.7902" cy="59.0344" r="1.4084" fill="url(#paint3_linear_29_402)"/>
<path fill-rule="evenodd" clip-rule="evenodd" d="M37.8475 69.844C37.8475 69.6533 37.584 69.6327 37.4983 69.803C36.9576 70.8768 35.8455 71.6135 34.5612 71.6135C33.277 71.6135 32.1648 70.8768 31.6242 69.803C31.5384 69.6327 31.275 69.6533 31.275 69.844V69.844C31.275 71.6589 32.7463 73.1302 34.5612 73.1302C36.3762 73.1302 37.8475 71.6589 37.8475 69.844V69.844Z" fill="#2F2F2F"/>
<defs>
<linearGradient id="paint0_linear_29_402" x1="56.7511" y1="0.351137" x2="17.2203" y2="31.8648" gradientUnits="userSpaceOnUse">
<stop stop-color="#FF4646"/>
<stop offset="1" stop-color="#FF6B6B"/>
</linearGradient>
<linearGradient id="paint1_linear_29_402" x1="39.932" y1="54.1685" x2="27.352" y2="60.8571" gradientUnits="userSpaceOnUse">
<stop stop-color="#FF4646"/>
<stop offset="1" stop-color="#FF6B6B"/>
</linearGradient>
<linearGradient id="paint2_linear_29_402" x1="9.67959" y1="57.626" x2="6.316" y2="59.4143" gradientUnits="userSpaceOnUse">
<stop stop-color="#FF4646"/>
<stop offset="1" stop-color="#FF6B6B"/>
</linearGradient>
<linearGradient id="paint3_linear_29_402" x1="63.1986" y1="57.626" x2="59.835" y2="59.4143" gradientUnits="userSpaceOnUse">
<stop stop-color="#FF4646"/>
<stop offset="1" stop-color="#FF6B6B"/>
</linearGradient>
</defs>
</svg>
