<svg width="70" height="78" viewBox="0 0 70 78" fill="none" xmlns="http://www.w3.org/2000/svg">
<path d="M12.3471 29.4262C28.3755 23.6129 48.6624 26.2442 58.9476 28.8157C60.3035 29.1548 61.4108 30.1135 61.5987 31.4985C61.7509 32.6207 61.8261 34.142 61.7108 36.079C61.5413 38.9248 58.7471 40.7323 55.9442 40.2119C36.4559 36.5932 22.4078 38.1209 15.2645 40.0482C13.1181 40.6273 10.7995 40.0011 10.2029 37.8595C9.9037 36.7853 9.64284 35.4671 9.4864 33.895C9.29034 31.9246 10.4857 30.1013 12.3471 29.4262Z" fill="white"/>
<path d="M55.6613 28.6865C45.9883 -8.95152 24.0964 -0.88282 14.3596 7.85628C13.4418 10.49 12.4202 15.3743 15.6765 13.842C20.2735 12.4054 17.5919 23.1397 15.6765 28.6865C18.7492 28.447 31.0479 28.1118 55.6613 28.6865Z" fill="url(#paint0_linear_29_428)"/>
<ellipse cx="7.1829" cy="7.18283" rx="7.1829" ry="7.18283" transform="matrix(-1 0 0 1 17.473 5.82156)" fill="white"/>
<ellipse cx="34.6645" cy="59.3208" rx="5.26746" ry="5.2674" fill="url(#paint1_linear_29_428)"/>
<path d="M29.5552 41.4514C26.2844 39.2009 23.2326 40.6515 21.3558 42.3661C20.9822 42.7074 21.3969 43.2392 21.8778 43.0819C28.0573 41.0601 34.3817 44.7723 29.5552 41.4514Z" fill="#7D2D14"/>
<path d="M40.3891 41.4514C43.66 39.2009 46.7117 40.6515 48.5886 42.3661C48.9621 42.7074 48.5474 43.2392 48.0665 43.0819C41.887 41.0601 35.5626 44.7723 40.3891 41.4514Z" fill="#7D2D14"/>
<circle cx="3.75573" cy="3.75573" r="3.75573" transform="matrix(-1 0 0 1 30.3363 44.6641)" fill="white"/>
<circle cx="3.75573" cy="3.75573" r="3.75573" transform="matrix(-1 0 0 1 47.2369 44.6641)" fill="white"/>
<path d="M24.5078 48.5173C24.5078 49.6082 25.3921 50.4925 26.4831 50.4925C27.574 50.4925 28.4584 49.6082 28.4584 48.5173C28.4584 47.4264 27.574 46.542 26.4831 46.542C25.3921 46.542 24.5078 47.4264 24.5078 48.5173Z" fill="#2F2F2F"/>
<path d="M41.4086 48.5173C41.4086 49.6082 42.293 50.4925 43.3839 50.4925C44.4748 50.4925 45.3592 49.6082 45.3592 48.5173C45.3592 47.4264 44.4748 46.542 43.3839 46.542C42.293 46.542 41.4086 47.4264 41.4086 48.5173Z" fill="#2F2F2F"/>
<path d="M69.7712 41.8473L61.8148 45.7204C59.962 59.3769 54.1854 59.687 57.7822 59.687C66.8502 59.4053 69.5532 47.6765 69.7712 41.8473Z" fill="#FFDDA7"/>
<path d="M0.290386 41.8473L8.24675 45.7204C10.0996 59.3769 15.8761 59.687 12.2794 59.687C3.21135 59.4053 0.508368 47.6765 0.290386 41.8473Z" fill="#FFDDA7"/>
<circle cx="34.5612" cy="74.2404" r="3.28626" fill="#2F2F2F"/>
<defs>
<linearGradient id="paint0_linear_29_428" x1="13.4508" y1="0.534396" x2="59.4946" y2="19.2619" gradientUnits="userSpaceOnUse">
<stop stop-color="#90FF63"/>
<stop offset="1" stop-color="#A6FF83"/>
</linearGradient>
<linearGradient id="paint1_linear_29_428" x1="39.932" y1="54.0534" x2="27.352" y2="60.742" gradientUnits="userSpaceOnUse">
<stop stop-color="#FF4646"/>
<stop offset="1" stop-color="#FF6B6B"/>
</linearGradient>
</defs>
</svg>
