<svg width="65" height="98" viewBox="0 0 65 98" fill="none" xmlns="http://www.w3.org/2000/svg">
<path d="M54.9919 29.0979C38.9635 23.2846 18.6766 25.9159 8.39139 28.4874C7.03546 28.8265 5.92817 29.7852 5.74031 31.1701C5.5881 32.2924 5.51291 33.8137 5.62823 35.7507C5.79765 38.5965 8.59192 40.404 11.3948 39.8836C30.8831 36.2649 44.9312 37.7926 52.0744 39.7199C54.2209 40.299 56.5395 39.6728 57.1361 37.5312C57.4353 36.457 57.6962 35.1387 57.8526 33.5667C58.0486 31.5963 56.8533 29.773 54.9919 29.0979Z" fill="white"/>
<path d="M25.8929 41.1231C22.622 38.8726 19.5702 40.3232 17.6934 42.0378C17.3199 42.3791 17.7346 42.9109 18.2155 42.7535C24.395 40.7318 30.7193 44.444 25.8929 41.1231Z" fill="white"/>
<path d="M36.7267 41.1231C39.9976 38.8726 43.0493 40.3232 44.9261 42.0378C45.2997 42.3791 44.885 42.9109 44.4041 42.7535C38.2246 40.7318 31.9002 44.444 36.7267 41.1231Z" fill="white"/>
<path d="M34.9263 90.4503C70.0136 79.0835 65.9705 62.6994 57.2545 53.2198C56.315 52.198 54.3978 53.4604 54.3737 54.8483C54.2735 60.6086 49.4694 67.1299 31.4308 67.1299C13.2335 67.1299 8.25696 60.4934 8.02252 54.6964C7.96688 53.3208 6.07906 52.1409 5.18332 53.1863C-2.61803 62.2917 -5.60202 78.218 27.9144 90.4345C28.0581 90.4869 28.2175 90.516 28.3705 90.516H34.5166C34.6536 90.516 34.796 90.4925 34.9263 90.4503Z" fill="white"/>
<ellipse cx="31.4289" cy="93.1636" rx="6.58433" ry="4.41246" fill="#EFEFEF"/>
<path fill-rule="evenodd" clip-rule="evenodd" d="M37.6545 46.1957C39.1486 42.4599 43.4804 45.3577 44.7174 46.914C43.2978 46.2224 41.9334 46.2724 40.7692 46.5591C40.9942 46.8799 41.1263 47.2706 41.1263 47.6921C41.1263 48.783 40.2419 49.6674 39.151 49.6674C38.06 49.6674 37.1757 48.783 37.1757 47.6921C37.1757 47.2962 37.2921 46.9275 37.4927 46.6184C37.539 46.4903 37.5929 46.3497 37.6545 46.1957Z" fill="#2F2F2F"/>
<path fill-rule="evenodd" clip-rule="evenodd" d="M24.6057 46.1957C23.1115 42.4599 18.7798 45.3577 17.5427 46.914C18.9624 46.2224 20.3267 46.2724 21.4909 46.5591C21.2659 46.8799 21.1339 47.2706 21.1339 47.6921C21.1339 48.783 22.0182 49.6674 23.1092 49.6674C24.2001 49.6674 25.0845 48.783 25.0845 47.6921C25.0845 47.2962 24.968 46.9275 24.7674 46.6184C24.7211 46.4903 24.6673 46.3497 24.6057 46.1957Z" fill="#2F2F2F"/>
<path d="M11.6779 28.3582C21.3508 -9.2798 43.2427 -1.2111 52.9795 7.52801C53.8974 10.1617 54.9189 15.046 51.6627 13.5137C47.0656 12.0771 49.7472 22.8115 51.6627 28.3582C48.59 28.1188 36.2913 27.7836 11.6779 28.3582Z" fill="url(#paint0_linear_29_257)"/>
<ellipse cx="57.0491" cy="12.6761" rx="7.1829" ry="7.18283" fill="white"/>
<path fill-rule="evenodd" clip-rule="evenodd" d="M0.463362 51.8251C3.17367 56.7036 10.8709 64.1839 19.9776 55.0774C23.2299 52.6382 24.8561 51.8251 31.3609 56.7036C31.5072 56.8133 31.6309 56.9296 31.7329 57.0518C31.8349 56.9296 31.9585 56.8133 32.1048 56.7036C38.6096 51.8251 40.2358 52.6382 43.4881 55.0775C52.5947 64.184 60.292 56.7036 63.0023 51.8251C63.7041 75.6854 35.332 65.6265 31.7328 59.2885C28.1335 65.6265 -0.238415 75.6852 0.463362 51.8251Z" fill="#EFEFEF"/>
<ellipse cx="31.4302" cy="53.2582" rx="5.26746" ry="5.2674" fill="url(#paint1_linear_29_257)"/>
<defs>
<linearGradient id="paint0_linear_29_257" x1="53.8884" y1="0.206117" x2="14.3577" y2="31.7198" gradientUnits="userSpaceOnUse">
<stop stop-color="#FF4646"/>
<stop offset="1" stop-color="#FF6B6B"/>
</linearGradient>
<linearGradient id="paint1_linear_29_257" x1="36.6977" y1="47.9908" x2="24.1178" y2="54.6794" gradientUnits="userSpaceOnUse">
<stop stop-color="#FF4646"/>
<stop offset="1" stop-color="#FF6B6B"/>
</linearGradient>
</defs>
</svg>
