<svg width="79" height="77" viewBox="0 0 79 77" fill="none" xmlns="http://www.w3.org/2000/svg">
<ellipse cx="39.9089" cy="62.3748" rx="5.26746" ry="5.2674" fill="url(#paint0_linear_29_364)"/>
<path d="M34.7997 44.5054C31.5288 42.2549 28.477 43.7054 26.6002 45.4201C26.2267 45.7613 26.6414 46.2931 27.1223 46.1358C33.3018 44.1141 39.6261 47.8262 34.7997 44.5054Z" fill="#7D2D14"/>
<path d="M45.6335 44.5054C48.9043 42.2549 51.9561 43.7054 53.8329 45.4201C54.2065 45.7613 53.7918 46.2931 53.3109 46.1358C47.1314 44.1141 40.807 47.8262 45.6335 44.5054Z" fill="#7D2D14"/>
<path d="M53.6242 50.2962C52.3872 48.74 48.0554 45.8421 46.5613 49.5779C44.8855 53.7679 48.9556 48.0216 53.6242 50.2962Z" fill="#2F2F2F"/>
<path d="M26.4493 50.2962C27.6864 48.74 32.0181 45.8421 33.5123 49.5779C35.1881 53.7679 31.118 48.0216 26.4493 50.2962Z" fill="#2F2F2F"/>
<path d="M75.0156 44.9012L67.0592 48.7743C65.2064 62.4308 59.4298 62.7409 63.0265 62.7409C72.0946 62.4593 74.7976 50.7304 75.0156 44.9012Z" fill="#FFDDA7"/>
<path d="M5.53459 44.9012L13.491 48.7743C15.3438 62.4308 21.1203 62.7409 17.5236 62.7409C8.45555 62.4593 5.75257 50.7304 5.53459 44.9012Z" fill="#FFDDA7"/>
<path d="M54.0346 37.4062C64.6205 29.3555 63.2789 19.2409 59.9109 12.4971C59.4345 11.5431 58.082 12.1977 58.2226 13.2547C60.7813 32.4929 38.4885 49.2293 54.0346 37.4062Z" fill="#7D2D14"/>
<path d="M61.1231 31.2563C64.1577 33.3502 66.8925 33.2403 69.0558 32.2822C70.0323 31.8498 69.133 30.585 68.0745 30.7275C61.5384 31.6078 55.3756 27.2905 61.1231 31.2563Z" fill="#7D2D14"/>
<path d="M48.8974 27.5014C47.6998 34.6352 50.1721 37.3155 53.019 38.0069C54.0006 38.2454 54.2267 36.5816 53.5372 35.8433C48.3597 30.2988 50.8167 16.069 48.8974 27.5014Z" fill="#7D2D14"/>
<path d="M70.3237 19.2919C63.4262 17.1123 60.4277 19.1873 59.3464 21.9101C58.9736 22.8489 60.5897 23.3045 61.4168 22.7246C67.6284 18.3699 81.3773 22.7849 70.3237 19.2919Z" fill="#7D2D14"/>
<path d="M24.9632 37.4062C14.3774 29.3555 15.719 19.2409 19.087 12.4971C19.5634 11.5431 20.9159 12.1977 20.7753 13.2547C18.2166 32.4929 40.5094 49.2293 24.9632 37.4062Z" fill="#7D2D14"/>
<path d="M17.8747 31.2564C14.8401 33.3503 12.1053 33.2404 9.94206 32.2823C8.96553 31.8498 9.86491 30.585 10.9234 30.7276C17.4595 31.6079 23.6222 27.2906 17.8747 31.2564Z" fill="#7D2D14"/>
<path d="M30.1005 27.5014C31.2981 34.6352 28.8257 37.3155 25.9788 38.0069C24.9972 38.2454 24.7712 36.5816 25.4606 35.8433C30.6381 30.2988 28.1812 16.069 30.1005 27.5014Z" fill="#7D2D14"/>
<path d="M8.67416 19.2919C15.5716 17.1123 18.5702 19.1873 19.6514 21.9101C20.0242 22.8489 18.4082 23.3045 17.5811 22.7246C11.3694 18.3699 -2.37939 22.7849 8.67416 19.2919Z" fill="#7D2D14"/>
<circle cx="2.34733" cy="2.34733" r="2.34733" transform="matrix(-1 1.01924e-08 1.01924e-08 1 31.8249 21.9238)" fill="url(#paint1_linear_29_364)"/>
<circle cx="2.34733" cy="2.34733" r="2.34733" transform="matrix(-1 1.01924e-08 1.01924e-08 1 73.1377 29.4353)" fill="url(#paint2_linear_29_364)"/>
<circle cx="2.34733" cy="2.34733" r="2.34733" transform="matrix(-1 1.01924e-08 1.01924e-08 1 59.9927 9.71777)" fill="url(#paint3_linear_29_364)"/>
<circle cx="2.34733" cy="2.34733" r="2.34733" transform="matrix(-1 1.01924e-08 1.01924e-08 1 52.4812 20.9849)" fill="url(#paint4_linear_29_364)"/>
<circle cx="2.34733" cy="2.34733" r="2.34733" transform="matrix(-1 1.01924e-08 1.01924e-08 1 76.8936 18.1681)" fill="url(#paint5_linear_29_364)"/>
<circle cx="2.34733" cy="2.34733" r="2.34733" transform="matrix(-1 1.01924e-08 1.01924e-08 1 15.863 31.3131)" fill="url(#paint6_linear_29_364)"/>
<circle cx="2.34733" cy="2.34733" r="2.34733" transform="matrix(-1 1.01924e-08 1.01924e-08 1 8.3515 18.168)" fill="url(#paint7_linear_29_364)"/>
<circle cx="2.34733" cy="2.34733" r="2.34733" transform="matrix(-1 1.01924e-08 1.01924e-08 1 23.3744 9.71765)" fill="url(#paint8_linear_29_364)"/>
<path d="M28.4979 39.693C39.5079 35.7369 49.6914 39.0717 55.0079 42.1099C55.4692 42.3735 55.1844 42.9907 54.6666 42.8714C35.2296 38.3926 13.1888 45.1939 28.4979 39.693Z" fill="url(#paint9_linear_29_364)"/>
<path fill-rule="evenodd" clip-rule="evenodd" d="M43.0919 72.783C43.0919 72.5923 42.8285 72.5717 42.7427 72.7421C42.2021 73.8159 41.0899 74.5525 39.8057 74.5525C38.5214 74.5525 37.4093 73.8159 36.8686 72.7421C36.7829 72.5717 36.5194 72.5923 36.5194 72.783V72.783C36.5194 74.598 37.9907 76.0693 39.8057 76.0693C41.6206 76.0693 43.0919 74.598 43.0919 72.783V72.783Z" fill="#2F2F2F"/>
<defs>
<linearGradient id="paint0_linear_29_364" x1="45.1764" y1="57.1074" x2="32.5965" y2="63.796" gradientUnits="userSpaceOnUse">
<stop stop-color="#FF4646"/>
<stop offset="1" stop-color="#FF6B6B"/>
</linearGradient>
<linearGradient id="paint1_linear_29_364" x1="4.69466" y1="2.63148e-07" x2="-0.911329" y2="2.98061" gradientUnits="userSpaceOnUse">
<stop stop-color="#FF4646"/>
<stop offset="1" stop-color="#FF6B6B"/>
</linearGradient>
<linearGradient id="paint2_linear_29_364" x1="4.69466" y1="2.63148e-07" x2="-0.911329" y2="2.98061" gradientUnits="userSpaceOnUse">
<stop stop-color="#FF4646"/>
<stop offset="1" stop-color="#FF6B6B"/>
</linearGradient>
<linearGradient id="paint3_linear_29_364" x1="4.69466" y1="2.63148e-07" x2="-0.911329" y2="2.98061" gradientUnits="userSpaceOnUse">
<stop stop-color="#FF4646"/>
<stop offset="1" stop-color="#FF6B6B"/>
</linearGradient>
<linearGradient id="paint4_linear_29_364" x1="4.69466" y1="2.63148e-07" x2="-0.911329" y2="2.98061" gradientUnits="userSpaceOnUse">
<stop stop-color="#FF4646"/>
<stop offset="1" stop-color="#FF6B6B"/>
</linearGradient>
<linearGradient id="paint5_linear_29_364" x1="4.69466" y1="2.63148e-07" x2="-0.911329" y2="2.98061" gradientUnits="userSpaceOnUse">
<stop stop-color="#FF4646"/>
<stop offset="1" stop-color="#FF6B6B"/>
</linearGradient>
<linearGradient id="paint6_linear_29_364" x1="4.69466" y1="2.63148e-07" x2="-0.911329" y2="2.98061" gradientUnits="userSpaceOnUse">
<stop stop-color="#FF4646"/>
<stop offset="1" stop-color="#FF6B6B"/>
</linearGradient>
<linearGradient id="paint7_linear_29_364" x1="4.69466" y1="2.63148e-07" x2="-0.911329" y2="2.98061" gradientUnits="userSpaceOnUse">
<stop stop-color="#FF4646"/>
<stop offset="1" stop-color="#FF6B6B"/>
</linearGradient>
<linearGradient id="paint8_linear_29_364" x1="4.69466" y1="2.63148e-07" x2="-0.911329" y2="2.98061" gradientUnits="userSpaceOnUse">
<stop stop-color="#FF4646"/>
<stop offset="1" stop-color="#FF6B6B"/>
</linearGradient>
<linearGradient id="paint9_linear_29_364" x1="23.3744" y1="37.8856" x2="28.0066" y2="52.6629" gradientUnits="userSpaceOnUse">
<stop stop-color="#FF4646"/>
<stop offset="1" stop-color="#FF6B6B"/>
</linearGradient>
</defs>
</svg>
